<mxfile host="Electron" modified="2024-12-19T19:11:40.120Z" agent="Mozilla/5.0 (Macintosh; Intel Mac OS X 10_15_7) AppleWebKit/537.36 (KHTML, like Gecko) draw.io/24.5.3 Chrome/124.0.6367.207 Electron/30.0.6 Safari/537.36" etag="uHUVoskfJ1L_Q59X-syg" version="24.5.3" type="device">
  <diagram name="Page-1" id="NXtn5NWAt9A9GzLUvKJt">
    <mxGraphModel dx="2312" dy="1171" grid="1" gridSize="10" guides="1" tooltips="1" connect="1" arrows="1" fold="1" page="1" pageScale="1" pageWidth="827" pageHeight="1169" math="0" shadow="0">
      <root>
        <mxCell id="0" />
        <mxCell id="1" parent="0" />
        <mxCell id="sKkuBAV3zZl49Jjkees--21" value="" style="edgeStyle=orthogonalEdgeStyle;rounded=0;orthogonalLoop=1;jettySize=auto;html=1;" edge="1" parent="1" source="quluALVd1v3folgSFrMa-13" target="sKkuBAV3zZl49Jjkees--19">
          <mxGeometry relative="1" as="geometry">
            <mxPoint x="500" y="365" as="targetPoint" />
          </mxGeometry>
        </mxCell>
        <mxCell id="sKkuBAV3zZl49Jjkees--22" value="СМС-оповещение клиентов&amp;nbsp;&lt;div&gt;об открытии депозита&lt;/div&gt;" style="edgeLabel;html=1;align=center;verticalAlign=middle;resizable=0;points=[];" vertex="1" connectable="0" parent="sKkuBAV3zZl49Jjkees--21">
          <mxGeometry x="0.1667" y="4" relative="1" as="geometry">
            <mxPoint x="-17" y="-16" as="offset" />
          </mxGeometry>
        </mxCell>
        <mxCell id="quluALVd1v3folgSFrMa-13" value="АБС" style="rounded=0;whiteSpace=wrap;html=1;fillColor=#d5e8d4;strokeColor=#82b366;fillOpacity=50;" parent="1" vertex="1">
          <mxGeometry x="210" y="110" width="210" height="320" as="geometry" />
        </mxCell>
        <mxCell id="sKkuBAV3zZl49Jjkees--15" value="" style="edgeStyle=orthogonalEdgeStyle;rounded=0;orthogonalLoop=1;jettySize=auto;html=1;" edge="1" parent="1" source="quluALVd1v3folgSFrMa-14" target="quluALVd1v3folgSFrMa-13">
          <mxGeometry relative="1" as="geometry">
            <mxPoint x="270" y="470" as="targetPoint" />
          </mxGeometry>
        </mxCell>
        <mxCell id="sKkuBAV3zZl49Jjkees--16" value="Передача обращений&amp;nbsp;&lt;div&gt;на открытие депозитов&lt;/div&gt;" style="edgeLabel;html=1;align=center;verticalAlign=middle;resizable=0;points=[];" vertex="1" connectable="0" parent="sKkuBAV3zZl49Jjkees--15">
          <mxGeometry x="0.1293" y="2" relative="1" as="geometry">
            <mxPoint x="67" as="offset" />
          </mxGeometry>
        </mxCell>
        <mxCell id="quluALVd1v3folgSFrMa-14" value="Система кол-центра" style="rounded=0;whiteSpace=wrap;html=1;fillColor=#e1d5e7;strokeColor=#9673a6;" parent="1" vertex="1">
          <mxGeometry x="255" y="550" width="120" height="70" as="geometry" />
        </mxCell>
        <mxCell id="sKkuBAV3zZl49Jjkees--3" value="" style="edgeStyle=orthogonalEdgeStyle;rounded=0;orthogonalLoop=1;jettySize=auto;html=1;" edge="1" parent="1" source="sKkuBAV3zZl49Jjkees--1" target="quluALVd1v3folgSFrMa-13">
          <mxGeometry relative="1" as="geometry">
            <mxPoint x="210" y="410" as="targetPoint" />
            <Array as="points">
              <mxPoint x="120" y="390" />
              <mxPoint x="120" y="390" />
            </Array>
          </mxGeometry>
        </mxCell>
        <mxCell id="sKkuBAV3zZl49Jjkees--4" value="Создание депозита в АБС" style="edgeLabel;html=1;align=center;verticalAlign=middle;resizable=0;points=[];" vertex="1" connectable="0" parent="sKkuBAV3zZl49Jjkees--3">
          <mxGeometry x="0.7238" y="2" relative="1" as="geometry">
            <mxPoint x="-139" y="-8" as="offset" />
          </mxGeometry>
        </mxCell>
        <mxCell id="sKkuBAV3zZl49Jjkees--1" value="Сотрудники фронт-офиса" style="shape=umlActor;verticalLabelPosition=bottom;verticalAlign=top;html=1;outlineConnect=0;" vertex="1" parent="1">
          <mxGeometry x="-190" y="360" width="30" height="60" as="geometry" />
        </mxCell>
        <mxCell id="sKkuBAV3zZl49Jjkees--7" value="" style="edgeStyle=orthogonalEdgeStyle;rounded=0;orthogonalLoop=1;jettySize=auto;html=1;" edge="1" parent="1" source="sKkuBAV3zZl49Jjkees--5" target="quluALVd1v3folgSFrMa-14">
          <mxGeometry relative="1" as="geometry">
            <mxPoint x="34.99999999999977" y="534.9999999999998" as="targetPoint" />
            <Array as="points" />
          </mxGeometry>
        </mxCell>
        <mxCell id="sKkuBAV3zZl49Jjkees--13" value="Создание обращений&amp;nbsp;&lt;div&gt;на открытие депозитов&lt;/div&gt;" style="edgeLabel;html=1;align=center;verticalAlign=middle;resizable=0;points=[];" vertex="1" connectable="0" parent="sKkuBAV3zZl49Jjkees--7">
          <mxGeometry x="-0.1406" y="3" relative="1" as="geometry">
            <mxPoint y="-12" as="offset" />
          </mxGeometry>
        </mxCell>
        <mxCell id="sKkuBAV3zZl49Jjkees--5" value="Сотрудники кол-центра" style="shape=umlActor;verticalLabelPosition=bottom;verticalAlign=top;html=1;outlineConnect=0;" vertex="1" parent="1">
          <mxGeometry x="-30" y="555" width="30" height="60" as="geometry" />
        </mxCell>
        <mxCell id="sKkuBAV3zZl49Jjkees--12" value="" style="edgeStyle=orthogonalEdgeStyle;rounded=0;orthogonalLoop=1;jettySize=auto;html=1;" edge="1" parent="1" source="sKkuBAV3zZl49Jjkees--10">
          <mxGeometry relative="1" as="geometry">
            <mxPoint x="210" y="170" as="targetPoint" />
            <Array as="points">
              <mxPoint x="120" y="170" />
              <mxPoint x="120" y="170" />
            </Array>
          </mxGeometry>
        </mxCell>
        <mxCell id="sKkuBAV3zZl49Jjkees--18" value="Обработка заявок на открытие депозитов" style="edgeLabel;html=1;align=center;verticalAlign=middle;resizable=0;points=[];" vertex="1" connectable="0" parent="sKkuBAV3zZl49Jjkees--12">
          <mxGeometry x="-0.6008" y="3" relative="1" as="geometry">
            <mxPoint x="70" y="-7" as="offset" />
          </mxGeometry>
        </mxCell>
        <mxCell id="sKkuBAV3zZl49Jjkees--10" value="Сотрудники отдела&amp;nbsp;&lt;div&gt;депозитов бэк-офиса&lt;/div&gt;" style="shape=umlActor;verticalLabelPosition=bottom;verticalAlign=top;html=1;outlineConnect=0;" vertex="1" parent="1">
          <mxGeometry x="-190" y="140" width="30" height="60" as="geometry" />
        </mxCell>
        <mxCell id="sKkuBAV3zZl49Jjkees--24" value="" style="edgeStyle=orthogonalEdgeStyle;rounded=0;orthogonalLoop=1;jettySize=auto;html=1;" edge="1" parent="1" source="sKkuBAV3zZl49Jjkees--19" target="sKkuBAV3zZl49Jjkees--23">
          <mxGeometry relative="1" as="geometry" />
        </mxCell>
        <mxCell id="sKkuBAV3zZl49Jjkees--25" value="СМС-оповещение клиентов&amp;nbsp;&lt;div&gt;об открытии депозита&lt;/div&gt;" style="edgeLabel;html=1;align=center;verticalAlign=middle;resizable=0;points=[];" vertex="1" connectable="0" parent="sKkuBAV3zZl49Jjkees--24">
          <mxGeometry x="-0.0061" y="-1" relative="1" as="geometry">
            <mxPoint y="-26" as="offset" />
          </mxGeometry>
        </mxCell>
        <mxCell id="sKkuBAV3zZl49Jjkees--19" value="СМС-шлюз телеком-оператора" style="rounded=0;whiteSpace=wrap;html=1;fillColor=#e1d5e7;strokeColor=#9673a6;" vertex="1" parent="1">
          <mxGeometry x="610" y="235" width="120" height="70" as="geometry" />
        </mxCell>
        <mxCell id="sKkuBAV3zZl49Jjkees--23" value="телеком-оператор" style="rounded=0;whiteSpace=wrap;html=1;fillColor=#f5f5f5;strokeColor=#666666;fontColor=#333333;" vertex="1" parent="1">
          <mxGeometry x="920" y="235" width="120" height="70" as="geometry" />
        </mxCell>
        <mxCell id="sKkuBAV3zZl49Jjkees--28" value="" style="edgeStyle=orthogonalEdgeStyle;rounded=0;orthogonalLoop=1;jettySize=auto;html=1;" edge="1" parent="1" source="sKkuBAV3zZl49Jjkees--26">
          <mxGeometry relative="1" as="geometry">
            <mxPoint x="210" y="290" as="targetPoint" />
            <Array as="points">
              <mxPoint x="70" y="290" />
              <mxPoint x="70" y="290" />
            </Array>
          </mxGeometry>
        </mxCell>
        <mxCell id="sKkuBAV3zZl49Jjkees--29" value="Анализ уровня кредитного риска для&amp;nbsp;&lt;div&gt;согласования специальных депозитных ставок&lt;/div&gt;" style="edgeLabel;html=1;align=center;verticalAlign=middle;resizable=0;points=[];" vertex="1" connectable="0" parent="sKkuBAV3zZl49Jjkees--28">
          <mxGeometry x="-0.5455" y="-2" relative="1" as="geometry">
            <mxPoint x="74" y="-22" as="offset" />
          </mxGeometry>
        </mxCell>
        <mxCell id="sKkuBAV3zZl49Jjkees--26" value="Сотрудники отдела&amp;nbsp;&lt;div&gt;кредитования в бэк-офисе&lt;/div&gt;" style="shape=umlActor;verticalLabelPosition=bottom;verticalAlign=top;html=1;outlineConnect=0;" vertex="1" parent="1">
          <mxGeometry x="-200" y="250" width="30" height="60" as="geometry" />
        </mxCell>
      </root>
    </mxGraphModel>
  </diagram>
</mxfile>
